<svg xmlns="http://www.w3.org/2000/svg" xmlns:xlink="http://www.w3.org/1999/xlink" width="500" zoomAndPan="magnify" viewBox="0 0 375 374.999991" height="500" preserveAspectRatio="xMidYMid meet" version="1.0"><defs><filter x="0%" y="0%" width="100%" height="100%" id="a51a4cc901"><feColorMatrix values="0 0 0 0 1 0 0 0 0 1 0 0 0 0 1 0 0 0 1 0" color-interpolation-filters="sRGB"/></filter><g/><clipPath id="106d0df89a"><path d="M 23.207031 114.332031 L 352.242188 114.332031 L 352.242188 267.039062 L 23.207031 267.039062 Z M 23.207031 114.332031 " clip-rule="nonzero"/></clipPath><clipPath id="7d1e07793e"><path d="M 52.699219 108.207031 L 230 108.207031 L 230 183.917969 L 52.699219 183.917969 Z M 52.699219 108.207031 " clip-rule="nonzero"/></clipPath><clipPath id="5930be43ea"><path d="M 321 190 L 336 190 L 336 266.78125 L 321 266.78125 Z M 321 190 " clip-rule="nonzero"/></clipPath><clipPath id="c01487d895"><path d="M 295.914062 190 L 316 190 L 316 266.78125 L 295.914062 266.78125 Z M 295.914062 190 " clip-rule="nonzero"/></clipPath><mask id="fad7ea27af"><g filter="url(#a51a4cc901)"><rect x="-37.5" width="450" fill="#000000" y="-37.499999" height="449.999989" fill-opacity="0.298"/></g></mask><clipPath id="5014ee3705"><path d="M 0.359375 1 L 0.839844 1 L 0.839844 1.800781 L 0.359375 1.800781 Z M 0.359375 1 " clip-rule="nonzero"/></clipPath><clipPath id="71edbcc091"><rect x="0" width="1" y="0" height="2"/></clipPath><clipPath id="b1162f4a5b"><path d="M 324 258 L 332 258 L 332 266.78125 L 324 266.78125 Z M 324 258 " clip-rule="nonzero"/></clipPath><mask id="b37fc7bdcf"><g filter="url(#a51a4cc901)"><rect x="-37.5" width="450" fill="#000000" y="-37.499999" height="449.999989" fill-opacity="0.298"/></g></mask><clipPath id="cea6fad1cd"><path d="M 0.480469 0.480469 L 7.679688 0.480469 L 7.679688 8.78125 L 0.480469 8.78125 Z M 0.480469 0.480469 " clip-rule="nonzero"/></clipPath><clipPath id="cca44eb9bc"><rect x="0" width="8" y="0" height="9"/></clipPath><clipPath id="c7acae0e10"><path d="M 301 258 L 310 258 L 310 266.78125 L 301 266.78125 Z M 301 258 " clip-rule="nonzero"/></clipPath><mask id="1a3fc80cb4"><g filter="url(#a51a4cc901)"><rect x="-37.5" width="450" fill="#000000" y="-37.499999" height="449.999989" fill-opacity="0.298"/></g></mask><clipPath id="ec81a0975b"><path d="M 1 0.480469 L 8 0.480469 L 8 8.78125 L 1 8.78125 Z M 1 0.480469 " clip-rule="nonzero"/></clipPath><clipPath id="03c7d19148"><rect x="0" width="9" y="0" height="9"/></clipPath></defs><g clip-path="url(#106d0df89a)"><path stroke-linecap="butt" transform="matrix(0.910227, 0, 0, 0.910494, 23.208542, 114.333816)" fill="none" stroke-linejoin="miter" d="M -0.0016603 -0.00195986 L 361.48519 -0.00195986 L 361.48519 167.716884 L -0.0016603 167.716884 L -0.0016603 -0.00195986 " stroke="#222223" stroke-width="9.901317" stroke-opacity="1" stroke-miterlimit="4"/></g><g clip-path="url(#7d1e07793e)"><path fill="#ffffff" d="M 52.699219 108.207031 L 229.828125 108.207031 L 229.828125 183.636719 L 52.699219 183.636719 Z M 52.699219 108.207031 " fill-opacity="1" fill-rule="nonzero"/></g><g fill="#222223" fill-opacity="1"><g transform="translate(34.321855, 211.377591)"><g><path d="M 45.703125 -22.96875 C 45.703125 -19.519531 45.15625 -16.382812 44.0625 -13.5625 C 42.96875 -10.738281 41.425781 -8.320312 39.4375 -6.3125 C 37.457031 -4.300781 35.070312 -2.742188 32.28125 -1.640625 C 29.488281 -0.546875 26.40625 0 23.03125 0 L 5.875 0 L 5.875 -45.953125 L 23.03125 -45.953125 C 26.40625 -45.953125 29.488281 -45.398438 32.28125 -44.296875 C 35.070312 -43.203125 37.457031 -41.644531 39.4375 -39.625 C 41.425781 -37.601562 42.96875 -35.179688 44.0625 -32.359375 C 45.15625 -29.535156 45.703125 -26.40625 45.703125 -22.96875 Z M 39.3125 -22.96875 C 39.3125 -25.789062 38.925781 -28.3125 38.15625 -30.53125 C 37.394531 -32.75 36.304688 -34.628906 34.890625 -36.171875 C 33.484375 -37.710938 31.773438 -38.890625 29.765625 -39.703125 C 27.753906 -40.515625 25.507812 -40.921875 23.03125 -40.921875 L 12.09375 -40.921875 L 12.09375 -5.03125 L 23.03125 -5.03125 C 25.507812 -5.03125 27.753906 -5.4375 29.765625 -6.25 C 31.773438 -7.0625 33.484375 -8.234375 34.890625 -9.765625 C 36.304688 -11.296875 37.394531 -13.171875 38.15625 -15.390625 C 38.925781 -17.617188 39.3125 -20.144531 39.3125 -22.96875 Z M 39.3125 -22.96875 "/></g></g></g><g fill="#222223" fill-opacity="1"><g transform="translate(89.507684, 211.377591)"><g><path d="M 12.09375 0 L 5.875 0 L 5.875 -45.953125 L 12.09375 -45.953125 Z M 12.09375 0 "/></g></g></g><g fill="#222223" fill-opacity="1"><g transform="translate(113.878918, 211.377591)"><g><path d="M 43.203125 -22.09375 L 43.203125 -4.453125 C 40.890625 -2.785156 38.421875 -1.539062 35.796875 -0.71875 C 33.179688 0.101562 30.316406 0.515625 27.203125 0.515625 C 23.492188 0.515625 20.15625 -0.0546875 17.1875 -1.203125 C 14.21875 -2.347656 11.679688 -3.953125 9.578125 -6.015625 C 7.472656 -8.078125 5.851562 -10.550781 4.71875 -13.4375 C 3.582031 -16.320312 3.015625 -19.5 3.015625 -22.96875 C 3.015625 -26.46875 3.5625 -29.660156 4.65625 -32.546875 C 5.757812 -35.429688 7.328125 -37.90625 9.359375 -39.96875 C 11.390625 -42.039062 13.859375 -43.640625 16.765625 -44.765625 C 19.679688 -45.898438 22.929688 -46.46875 26.515625 -46.46875 C 28.335938 -46.46875 30.03125 -46.332031 31.59375 -46.0625 C 33.15625 -45.800781 34.597656 -45.414062 35.921875 -44.90625 C 37.242188 -44.40625 38.472656 -43.796875 39.609375 -43.078125 C 40.742188 -42.367188 41.800781 -41.566406 42.78125 -40.671875 L 41.015625 -37.84375 C 40.734375 -37.414062 40.375 -37.140625 39.9375 -37.015625 C 39.5 -36.898438 39.015625 -37.003906 38.484375 -37.328125 C 37.972656 -37.628906 37.382812 -37.992188 36.71875 -38.421875 C 36.050781 -38.847656 35.242188 -39.257812 34.296875 -39.65625 C 33.347656 -40.050781 32.222656 -40.382812 30.921875 -40.65625 C 29.628906 -40.9375 28.097656 -41.078125 26.328125 -41.078125 C 23.742188 -41.078125 21.398438 -40.65625 19.296875 -39.8125 C 17.203125 -38.96875 15.414062 -37.757812 13.9375 -36.1875 C 12.46875 -34.613281 11.335938 -32.707031 10.546875 -30.46875 C 9.753906 -28.238281 9.359375 -25.738281 9.359375 -22.96875 C 9.359375 -20.082031 9.769531 -17.5 10.59375 -15.21875 C 11.414062 -12.9375 12.59375 -11 14.125 -9.40625 C 15.65625 -7.8125 17.507812 -6.597656 19.6875 -5.765625 C 21.875 -4.929688 24.320312 -4.515625 27.03125 -4.515625 C 29.175781 -4.515625 31.078125 -4.753906 32.734375 -5.234375 C 34.390625 -5.722656 36.007812 -6.394531 37.59375 -7.25 L 37.59375 -17.34375 L 30.4375 -17.34375 C 30.03125 -17.34375 29.703125 -17.460938 29.453125 -17.703125 C 29.210938 -17.941406 29.09375 -18.226562 29.09375 -18.5625 L 29.09375 -22.09375 Z M 43.203125 -22.09375 "/></g></g></g><g fill="#222223" fill-opacity="1"><g transform="translate(167.140835, 211.377591)"><g><path d="M 34.21875 -5.0625 L 34.1875 0 L 5.875 0 L 5.875 -45.953125 L 34.1875 -45.953125 L 34.1875 -40.890625 L 12.09375 -40.890625 L 12.09375 -25.625 L 29.984375 -25.625 L 29.984375 -20.75 L 12.09375 -20.75 L 12.09375 -5.0625 Z M 34.21875 -5.0625 "/></g></g></g><g fill="#222223" fill-opacity="1"><g transform="translate(210.590815, 211.377591)"><g><path d="M 29.375 -38.765625 C 29.1875 -38.453125 28.976562 -38.210938 28.75 -38.046875 C 28.53125 -37.890625 28.257812 -37.8125 27.9375 -37.8125 C 27.570312 -37.8125 27.140625 -37.992188 26.640625 -38.359375 C 26.148438 -38.722656 25.535156 -39.125 24.796875 -39.5625 C 24.066406 -40 23.179688 -40.398438 22.140625 -40.765625 C 21.109375 -41.128906 19.851562 -41.3125 18.375 -41.3125 C 16.988281 -41.3125 15.765625 -41.125 14.703125 -40.75 C 13.640625 -40.375 12.75 -39.863281 12.03125 -39.21875 C 11.320312 -38.582031 10.785156 -37.828125 10.421875 -36.953125 C 10.054688 -36.085938 9.875 -35.15625 9.875 -34.15625 C 9.875 -32.875 10.1875 -31.8125 10.8125 -30.96875 C 11.445312 -30.125 12.28125 -29.398438 13.3125 -28.796875 C 14.351562 -28.203125 15.53125 -27.6875 16.84375 -27.25 C 18.164062 -26.8125 19.515625 -26.351562 20.890625 -25.875 C 22.273438 -25.40625 23.625 -24.875 24.9375 -24.28125 C 26.25 -23.695312 27.421875 -22.957031 28.453125 -22.0625 C 29.492188 -21.164062 30.328125 -20.066406 30.953125 -18.765625 C 31.585938 -17.460938 31.90625 -15.859375 31.90625 -13.953125 C 31.90625 -11.941406 31.5625 -10.050781 30.875 -8.28125 C 30.195312 -6.519531 29.195312 -4.988281 27.875 -3.6875 C 26.5625 -2.382812 24.945312 -1.359375 23.03125 -0.609375 C 21.125 0.140625 18.953125 0.515625 16.515625 0.515625 C 13.523438 0.515625 10.8125 -0.0195312 8.375 -1.09375 C 5.9375 -2.175781 3.847656 -3.640625 2.109375 -5.484375 L 3.90625 -8.4375 C 4.082031 -8.664062 4.289062 -8.859375 4.53125 -9.015625 C 4.78125 -9.179688 5.054688 -9.265625 5.359375 -9.265625 C 5.628906 -9.265625 5.941406 -9.148438 6.296875 -8.921875 C 6.648438 -8.703125 7.050781 -8.421875 7.5 -8.078125 C 7.945312 -7.734375 8.457031 -7.359375 9.03125 -6.953125 C 9.613281 -6.546875 10.273438 -6.171875 11.015625 -5.828125 C 11.753906 -5.492188 12.59375 -5.210938 13.53125 -4.984375 C 14.46875 -4.765625 15.523438 -4.65625 16.703125 -4.65625 C 18.179688 -4.65625 19.5 -4.859375 20.65625 -5.265625 C 21.8125 -5.671875 22.789062 -6.238281 23.59375 -6.96875 C 24.394531 -7.707031 25.007812 -8.585938 25.4375 -9.609375 C 25.863281 -10.640625 26.078125 -11.785156 26.078125 -13.046875 C 26.078125 -14.441406 25.757812 -15.582031 25.125 -16.46875 C 24.5 -17.351562 23.671875 -18.09375 22.640625 -18.6875 C 21.617188 -19.289062 20.441406 -19.800781 19.109375 -20.21875 C 17.785156 -20.632812 16.4375 -21.0625 15.0625 -21.5 C 13.695312 -21.9375 12.351562 -22.441406 11.03125 -23.015625 C 9.707031 -23.597656 8.53125 -24.347656 7.5 -25.265625 C 6.476562 -26.191406 5.648438 -27.34375 5.015625 -28.71875 C 4.390625 -30.09375 4.078125 -31.796875 4.078125 -33.828125 C 4.078125 -35.453125 4.390625 -37.023438 5.015625 -38.546875 C 5.648438 -40.066406 6.570312 -41.414062 7.78125 -42.59375 C 8.988281 -43.769531 10.472656 -44.707031 12.234375 -45.40625 C 13.992188 -46.113281 16.019531 -46.46875 18.3125 -46.46875 C 20.875 -46.46875 23.207031 -46.0625 25.3125 -45.25 C 27.425781 -44.4375 29.285156 -43.257812 30.890625 -41.71875 Z M 29.375 -38.765625 "/></g></g></g><g fill="#222223" fill-opacity="1"><g transform="translate(251.796251, 211.377591)"><g><path d="M 36.9375 -40.734375 L 22.0625 -40.734375 L 22.0625 0 L 15.875 0 L 15.875 -40.734375 L 0.96875 -40.734375 L 0.96875 -45.953125 L 36.9375 -45.953125 Z M 36.9375 -40.734375 "/></g></g></g><g clip-path="url(#5930be43ea)"><path fill="#222223" d="M 330.019531 227.042969 C 330.019531 231.617188 334.398438 263.425781 331.917969 274.976562 C 330.878906 279.804688 325.464844 279.175781 324.5625 274.976562 C 322.273438 264.316406 326.375 254.507812 326.375 226.792969 C 326.375 223 323.449219 222.898438 321.867188 218.003906 C 320.457031 213.632812 322.449219 190.09375 323.09375 190.09375 C 323.824219 190.09375 323.464844 210.480469 324.855469 210.480469 C 326.257812 210.480469 325.550781 190.371094 326.4375 190.09375 C 327.324219 189.816406 326.671875 210.480469 328.3125 210.480469 C 329.96875 210.480469 328.894531 190.09375 329.78125 190.09375 C 330.667969 190.09375 330.417969 210.480469 331.769531 210.480469 C 333.257812 210.480469 332.457031 190.09375 333.125 190.09375 C 334.253906 190.09375 335.578125 212.230469 334.875 216.910156 C 334.171875 221.585938 330.019531 222.472656 330.019531 227.046875 Z M 330.019531 227.042969 " fill-opacity="1" fill-rule="nonzero"/></g><g clip-path="url(#c01487d895)"><path fill="#222223" d="M 307.527344 226.0625 C 307.527344 253.894531 311.992188 265.210938 309.425781 275.035156 C 308.207031 279.71875 302.976562 279.164062 302.074219 275.035156 C 299.996094 265.515625 303.882812 253.332031 303.882812 226.0625 C 303.882812 222.890625 295.960938 223.433594 295.960938 212.585938 C 295.960938 199.007812 301.003906 190.015625 305.808594 190.015625 C 310.289062 190.015625 315.160156 199.875 315.160156 212.585938 C 315.160156 222.773438 307.527344 223.449219 307.527344 226.0625 Z M 307.527344 226.0625 " fill-opacity="1" fill-rule="nonzero"/></g><g mask="url(#fad7ea27af)"><g transform="matrix(1, 0, 0, 1, 333, 207)"><g clip-path="url(#71edbcc091)"><g clip-path="url(#5014ee3705)"><path fill="#222223" d="M 0.398438 1.300781 C 0.40625 1.441406 0.476562 1.542969 0.550781 1.527344 C 0.621094 1.507812 0.675781 1.378906 0.664062 1.234375 C 0.65625 1.09375 0.589844 0.992188 0.515625 1.007812 C 0.441406 1.027344 0.390625 1.15625 0.398438 1.300781 Z M 0.398438 1.300781 " fill-opacity="0.7765" fill-rule="nonzero"/></g></g></g></g><g clip-path="url(#b1162f4a5b)"><g mask="url(#b37fc7bdcf)"><g transform="matrix(1, 0, 0, 1, 324, 258)"><g clip-path="url(#cca44eb9bc)"><g clip-path="url(#cea6fad1cd)"><path fill="#222223" d="M 7.414062 16.824219 C 6.96875 18.824219 5.089844 20.234375 3.148438 19.320312 C 0.996094 18.3125 0.6875 14.96875 0.671875 13.15625 C 0.644531 9.945312 0.980469 7.574219 1.367188 4.425781 C 1.488281 3.449219 1.683594 1.628906 1.878906 0.734375 C 1.886719 3.269531 1.492188 5.726562 1.964844 8.246094 C 2.664062 10.613281 1.882812 14.941406 4.148438 16.527344 C 5.269531 17.316406 7.289062 15.757812 7.414062 16.824219 Z M 7.414062 16.824219 " fill-opacity="1" fill-rule="nonzero"/></g></g></g></g></g><g clip-path="url(#c7acae0e10)"><g mask="url(#1a3fc80cb4)"><g transform="matrix(1, 0, 0, 1, 301, 258)"><g clip-path="url(#03c7d19148)"><g clip-path="url(#ec81a0975b)"><path fill="#222223" d="M 7.777344 16.824219 C 7.332031 18.824219 5.453125 20.234375 3.511719 19.320312 C 1.359375 18.3125 1.050781 14.96875 1.035156 13.15625 C 1.007812 9.945312 1.347656 7.574219 1.730469 4.425781 C 1.851562 3.449219 2.046875 1.628906 2.242188 0.734375 C 2.25 3.269531 1.855469 5.726562 2.328125 8.246094 C 3.027344 10.613281 2.25 14.941406 4.511719 16.527344 C 5.632812 17.316406 7.652344 15.757812 7.777344 16.824219 Z M 7.777344 16.824219 " fill-opacity="1" fill-rule="nonzero"/></g></g></g></g></g><g fill="#000000" fill-opacity="1"><g transform="translate(60.065644, 121.057312)"><g><path d="M 6.5625 -3.6875 L 5 -7.75 C 4.945312 -7.863281 4.894531 -8 4.84375 -8.15625 C 4.789062 -8.320312 4.742188 -8.492188 4.703125 -8.671875 C 4.609375 -8.296875 4.507812 -7.984375 4.40625 -7.734375 L 2.84375 -3.6875 Z M 9.359375 0 L 8.328125 0 C 8.203125 0 8.101562 -0.03125 8.03125 -0.09375 C 7.957031 -0.15625 7.898438 -0.226562 7.859375 -0.3125 L 6.9375 -2.71875 L 2.46875 -2.71875 L 1.53125 -0.3125 C 1.507812 -0.226562 1.457031 -0.15625 1.375 -0.09375 C 1.289062 -0.03125 1.191406 0 1.078125 0 L 0.046875 0 L 4.015625 -9.953125 L 5.375 -9.953125 Z M 9.359375 0 "/></g></g></g><g fill="#000000" fill-opacity="1"><g transform="translate(73.137105, 121.057312)"><g><path d="M 6.359375 -8.390625 C 6.316406 -8.328125 6.269531 -8.273438 6.21875 -8.234375 C 6.175781 -8.203125 6.117188 -8.1875 6.046875 -8.1875 C 5.972656 -8.1875 5.878906 -8.222656 5.765625 -8.296875 C 5.660156 -8.378906 5.523438 -8.46875 5.359375 -8.5625 C 5.203125 -8.65625 5.007812 -8.742188 4.78125 -8.828125 C 4.5625 -8.910156 4.296875 -8.953125 3.984375 -8.953125 C 3.679688 -8.953125 3.414062 -8.910156 3.1875 -8.828125 C 2.957031 -8.742188 2.765625 -8.628906 2.609375 -8.484375 C 2.453125 -8.347656 2.332031 -8.1875 2.25 -8 C 2.175781 -7.8125 2.140625 -7.609375 2.140625 -7.390625 C 2.140625 -7.117188 2.207031 -6.890625 2.34375 -6.703125 C 2.476562 -6.523438 2.65625 -6.367188 2.875 -6.234375 C 3.101562 -6.109375 3.359375 -5.992188 3.640625 -5.890625 C 3.929688 -5.796875 4.222656 -5.695312 4.515625 -5.59375 C 4.816406 -5.5 5.109375 -5.382812 5.390625 -5.25 C 5.679688 -5.125 5.9375 -4.960938 6.15625 -4.765625 C 6.382812 -4.578125 6.566406 -4.34375 6.703125 -4.0625 C 6.835938 -3.78125 6.90625 -3.429688 6.90625 -3.015625 C 6.90625 -2.585938 6.832031 -2.179688 6.6875 -1.796875 C 6.539062 -1.410156 6.320312 -1.078125 6.03125 -0.796875 C 5.75 -0.515625 5.398438 -0.289062 4.984375 -0.125 C 4.578125 0.03125 4.109375 0.109375 3.578125 0.109375 C 2.929688 0.109375 2.34375 -0.00390625 1.8125 -0.234375 C 1.28125 -0.472656 0.828125 -0.789062 0.453125 -1.1875 L 0.84375 -1.828125 C 0.882812 -1.878906 0.929688 -1.921875 0.984375 -1.953125 C 1.035156 -1.984375 1.09375 -2 1.15625 -2 C 1.21875 -2 1.285156 -1.972656 1.359375 -1.921875 C 1.441406 -1.878906 1.53125 -1.820312 1.625 -1.75 C 1.71875 -1.675781 1.828125 -1.59375 1.953125 -1.5 C 2.078125 -1.414062 2.21875 -1.335938 2.375 -1.265625 C 2.539062 -1.191406 2.722656 -1.128906 2.921875 -1.078125 C 3.128906 -1.023438 3.363281 -1 3.625 -1 C 3.9375 -1 4.21875 -1.039062 4.46875 -1.125 C 4.71875 -1.21875 4.929688 -1.34375 5.109375 -1.5 C 5.285156 -1.664062 5.414062 -1.859375 5.5 -2.078125 C 5.59375 -2.304688 5.640625 -2.554688 5.640625 -2.828125 C 5.640625 -3.128906 5.570312 -3.375 5.4375 -3.5625 C 5.300781 -3.757812 5.117188 -3.921875 4.890625 -4.046875 C 4.671875 -4.179688 4.414062 -4.289062 4.125 -4.375 C 3.84375 -4.46875 3.550781 -4.5625 3.25 -4.65625 C 2.957031 -4.75 2.664062 -4.859375 2.375 -4.984375 C 2.09375 -5.109375 1.84375 -5.269531 1.625 -5.46875 C 1.40625 -5.664062 1.222656 -5.914062 1.078125 -6.21875 C 0.941406 -6.519531 0.875 -6.890625 0.875 -7.328125 C 0.875 -7.679688 0.941406 -8.019531 1.078125 -8.34375 C 1.222656 -8.675781 1.425781 -8.96875 1.6875 -9.21875 C 1.945312 -9.476562 2.265625 -9.679688 2.640625 -9.828125 C 3.023438 -9.984375 3.46875 -10.0625 3.96875 -10.0625 C 4.519531 -10.0625 5.023438 -9.972656 5.484375 -9.796875 C 5.941406 -9.617188 6.34375 -9.363281 6.6875 -9.03125 Z M 6.359375 -8.390625 "/></g></g></g><g fill="#000000" fill-opacity="1"><g transform="translate(84.340224, 121.057312)"><g><path d="M 9.328125 -9.953125 L 9.328125 0 L 7.984375 0 L 7.984375 -4.53125 L 2.625 -4.53125 L 2.625 0 L 1.265625 0 L 1.265625 -9.953125 L 2.625 -9.953125 L 2.625 -5.515625 L 7.984375 -5.515625 L 7.984375 -9.953125 Z M 9.328125 -9.953125 "/></g></g></g><g fill="#000000" fill-opacity="1"><g transform="translate(98.613266, 121.057312)"><g><path d="M 6.921875 -1.125 L 6.921875 0 L 1.265625 0 L 1.265625 -9.953125 L 2.609375 -9.953125 L 2.609375 -1.125 Z M 6.921875 -1.125 "/></g></g></g><g fill="#000000" fill-opacity="1"><g transform="translate(109.413538, 121.057312)"><g><path d="M 2.625 0 L 1.265625 0 L 1.265625 -9.953125 L 2.625 -9.953125 Z M 2.625 0 "/></g></g></g><g fill="#000000" fill-opacity="1"><g transform="translate(116.97025, 121.057312)"><g><path d="M 9.328125 -9.953125 L 9.328125 0 L 8.65625 0 C 8.550781 0 8.460938 -0.015625 8.390625 -0.046875 C 8.316406 -0.0859375 8.25 -0.15625 8.1875 -0.25 L 2.421875 -7.75 C 2.429688 -7.632812 2.4375 -7.519531 2.4375 -7.40625 C 2.445312 -7.289062 2.453125 -7.1875 2.453125 -7.09375 L 2.453125 0 L 1.265625 0 L 1.265625 -9.953125 L 1.96875 -9.953125 C 2.03125 -9.953125 2.082031 -9.945312 2.125 -9.9375 C 2.164062 -9.9375 2.203125 -9.925781 2.234375 -9.90625 C 2.265625 -9.894531 2.296875 -9.875 2.328125 -9.84375 C 2.359375 -9.8125 2.394531 -9.769531 2.4375 -9.71875 L 8.1875 -2.234375 C 8.175781 -2.347656 8.164062 -2.460938 8.15625 -2.578125 C 8.15625 -2.691406 8.15625 -2.800781 8.15625 -2.90625 L 8.15625 -9.953125 Z M 9.328125 -9.953125 "/></g></g></g><g fill="#000000" fill-opacity="1"><g transform="translate(131.24329, 121.057312)"><g><path d="M 9.359375 -4.78125 L 9.359375 -0.96875 C 8.859375 -0.601562 8.320312 -0.332031 7.75 -0.15625 C 7.1875 0.0195312 6.566406 0.109375 5.890625 0.109375 C 5.085938 0.109375 4.363281 -0.0078125 3.71875 -0.25 C 3.070312 -0.5 2.519531 -0.847656 2.0625 -1.296875 C 1.613281 -1.742188 1.265625 -2.28125 1.015625 -2.90625 C 0.773438 -3.53125 0.65625 -4.21875 0.65625 -4.96875 C 0.65625 -5.726562 0.773438 -6.421875 1.015625 -7.046875 C 1.253906 -7.671875 1.59375 -8.207031 2.03125 -8.65625 C 2.46875 -9.101562 3 -9.445312 3.625 -9.6875 C 4.257812 -9.9375 4.96875 -10.0625 5.75 -10.0625 C 6.132812 -10.0625 6.492188 -10.03125 6.828125 -9.96875 C 7.171875 -9.914062 7.484375 -9.832031 7.765625 -9.71875 C 8.054688 -9.613281 8.328125 -9.484375 8.578125 -9.328125 C 8.828125 -9.171875 9.054688 -9 9.265625 -8.8125 L 8.890625 -8.203125 C 8.828125 -8.109375 8.75 -8.046875 8.65625 -8.015625 C 8.5625 -7.992188 8.453125 -8.015625 8.328125 -8.078125 C 8.222656 -8.148438 8.097656 -8.226562 7.953125 -8.3125 C 7.804688 -8.40625 7.628906 -8.492188 7.421875 -8.578125 C 7.222656 -8.671875 6.984375 -8.742188 6.703125 -8.796875 C 6.421875 -8.859375 6.085938 -8.890625 5.703125 -8.890625 C 5.140625 -8.890625 4.628906 -8.796875 4.171875 -8.609375 C 3.722656 -8.429688 3.335938 -8.171875 3.015625 -7.828125 C 2.703125 -7.492188 2.457031 -7.082031 2.28125 -6.59375 C 2.113281 -6.113281 2.03125 -5.570312 2.03125 -4.96875 C 2.03125 -4.34375 2.117188 -3.785156 2.296875 -3.296875 C 2.472656 -2.804688 2.726562 -2.382812 3.0625 -2.03125 C 3.394531 -1.6875 3.796875 -1.425781 4.265625 -1.25 C 4.734375 -1.070312 5.265625 -0.984375 5.859375 -0.984375 C 6.316406 -0.984375 6.722656 -1.035156 7.078125 -1.140625 C 7.441406 -1.242188 7.796875 -1.382812 8.140625 -1.5625 L 8.140625 -3.75 L 6.59375 -3.75 C 6.5 -3.75 6.425781 -3.773438 6.375 -3.828125 C 6.320312 -3.878906 6.296875 -3.941406 6.296875 -4.015625 L 6.296875 -4.78125 Z M 9.359375 -4.78125 "/></g></g></g><g fill="#000000" fill-opacity="1"><g transform="translate(145.057928, 121.057312)"><g/></g></g><g fill="#000000" fill-opacity="1"><g transform="translate(152.281254, 121.057312)"><g><path d="M 6.359375 -8.390625 C 6.316406 -8.328125 6.269531 -8.273438 6.21875 -8.234375 C 6.175781 -8.203125 6.117188 -8.1875 6.046875 -8.1875 C 5.972656 -8.1875 5.878906 -8.222656 5.765625 -8.296875 C 5.660156 -8.378906 5.523438 -8.46875 5.359375 -8.5625 C 5.203125 -8.65625 5.007812 -8.742188 4.78125 -8.828125 C 4.5625 -8.910156 4.296875 -8.953125 3.984375 -8.953125 C 3.679688 -8.953125 3.414062 -8.910156 3.1875 -8.828125 C 2.957031 -8.742188 2.765625 -8.628906 2.609375 -8.484375 C 2.453125 -8.347656 2.332031 -8.1875 2.25 -8 C 2.175781 -7.8125 2.140625 -7.609375 2.140625 -7.390625 C 2.140625 -7.117188 2.207031 -6.890625 2.34375 -6.703125 C 2.476562 -6.523438 2.65625 -6.367188 2.875 -6.234375 C 3.101562 -6.109375 3.359375 -5.992188 3.640625 -5.890625 C 3.929688 -5.796875 4.222656 -5.695312 4.515625 -5.59375 C 4.816406 -5.5 5.109375 -5.382812 5.390625 -5.25 C 5.679688 -5.125 5.9375 -4.960938 6.15625 -4.765625 C 6.382812 -4.578125 6.566406 -4.34375 6.703125 -4.0625 C 6.835938 -3.78125 6.90625 -3.429688 6.90625 -3.015625 C 6.90625 -2.585938 6.832031 -2.179688 6.6875 -1.796875 C 6.539062 -1.410156 6.320312 -1.078125 6.03125 -0.796875 C 5.75 -0.515625 5.398438 -0.289062 4.984375 -0.125 C 4.578125 0.03125 4.109375 0.109375 3.578125 0.109375 C 2.929688 0.109375 2.34375 -0.00390625 1.8125 -0.234375 C 1.28125 -0.472656 0.828125 -0.789062 0.453125 -1.1875 L 0.84375 -1.828125 C 0.882812 -1.878906 0.929688 -1.921875 0.984375 -1.953125 C 1.035156 -1.984375 1.09375 -2 1.15625 -2 C 1.21875 -2 1.285156 -1.972656 1.359375 -1.921875 C 1.441406 -1.878906 1.53125 -1.820312 1.625 -1.75 C 1.71875 -1.675781 1.828125 -1.59375 1.953125 -1.5 C 2.078125 -1.414062 2.21875 -1.335938 2.375 -1.265625 C 2.539062 -1.191406 2.722656 -1.128906 2.921875 -1.078125 C 3.128906 -1.023438 3.363281 -1 3.625 -1 C 3.9375 -1 4.21875 -1.039062 4.46875 -1.125 C 4.71875 -1.21875 4.929688 -1.34375 5.109375 -1.5 C 5.285156 -1.664062 5.414062 -1.859375 5.5 -2.078125 C 5.59375 -2.304688 5.640625 -2.554688 5.640625 -2.828125 C 5.640625 -3.128906 5.570312 -3.375 5.4375 -3.5625 C 5.300781 -3.757812 5.117188 -3.921875 4.890625 -4.046875 C 4.671875 -4.179688 4.414062 -4.289062 4.125 -4.375 C 3.84375 -4.46875 3.550781 -4.5625 3.25 -4.65625 C 2.957031 -4.75 2.664062 -4.859375 2.375 -4.984375 C 2.09375 -5.109375 1.84375 -5.269531 1.625 -5.46875 C 1.40625 -5.664062 1.222656 -5.914062 1.078125 -6.21875 C 0.941406 -6.519531 0.875 -6.890625 0.875 -7.328125 C 0.875 -7.679688 0.941406 -8.019531 1.078125 -8.34375 C 1.222656 -8.675781 1.425781 -8.96875 1.6875 -9.21875 C 1.945312 -9.476562 2.265625 -9.679688 2.640625 -9.828125 C 3.023438 -9.984375 3.46875 -10.0625 3.96875 -10.0625 C 4.519531 -10.0625 5.023438 -9.972656 5.484375 -9.796875 C 5.941406 -9.617188 6.34375 -9.363281 6.6875 -9.03125 Z M 6.359375 -8.390625 "/></g></g></g><g fill="#000000" fill-opacity="1"><g transform="translate(163.484372, 121.057312)"><g><path d="M 8 -8.828125 L 4.78125 -8.828125 L 4.78125 0 L 3.4375 0 L 3.4375 -8.828125 L 0.203125 -8.828125 L 0.203125 -9.953125 L 8 -9.953125 Z M 8 -8.828125 "/></g></g></g><g fill="#000000" fill-opacity="1"><g transform="translate(175.354261, 121.057312)"><g><path d="M 4.03125 -5.125 C 4.414062 -5.125 4.753906 -5.171875 5.046875 -5.265625 C 5.347656 -5.367188 5.597656 -5.503906 5.796875 -5.671875 C 6.003906 -5.847656 6.160156 -6.054688 6.265625 -6.296875 C 6.367188 -6.535156 6.421875 -6.800781 6.421875 -7.09375 C 6.421875 -7.6875 6.222656 -8.132812 5.828125 -8.4375 C 5.441406 -8.738281 4.859375 -8.890625 4.078125 -8.890625 L 2.609375 -8.890625 L 2.609375 -5.125 Z M 8.625 0 L 7.4375 0 C 7.1875 0 7.003906 -0.09375 6.890625 -0.28125 L 4.3125 -3.84375 C 4.226562 -3.945312 4.140625 -4.023438 4.046875 -4.078125 C 3.960938 -4.128906 3.820312 -4.15625 3.625 -4.15625 L 2.609375 -4.15625 L 2.609375 0 L 1.265625 0 L 1.265625 -9.953125 L 4.078125 -9.953125 C 4.710938 -9.953125 5.257812 -9.890625 5.71875 -9.765625 C 6.175781 -9.640625 6.550781 -9.453125 6.84375 -9.203125 C 7.144531 -8.960938 7.367188 -8.671875 7.515625 -8.328125 C 7.660156 -7.992188 7.734375 -7.617188 7.734375 -7.203125 C 7.734375 -6.847656 7.675781 -6.515625 7.5625 -6.203125 C 7.445312 -5.898438 7.285156 -5.625 7.078125 -5.375 C 6.867188 -5.132812 6.613281 -4.925781 6.3125 -4.75 C 6.007812 -4.582031 5.664062 -4.457031 5.28125 -4.375 C 5.445312 -4.28125 5.59375 -4.140625 5.71875 -3.953125 Z M 8.625 0 "/></g></g></g><g fill="#000000" fill-opacity="1"><g transform="translate(187.724224, 121.057312)"><g><path d="M 5.109375 -1.0625 C 5.523438 -1.0625 5.894531 -1.128906 6.21875 -1.265625 C 6.539062 -1.410156 6.8125 -1.609375 7.03125 -1.859375 C 7.257812 -2.109375 7.429688 -2.40625 7.546875 -2.75 C 7.671875 -3.101562 7.734375 -3.488281 7.734375 -3.90625 L 7.734375 -9.953125 L 9.078125 -9.953125 L 9.078125 -3.90625 C 9.078125 -3.332031 8.984375 -2.796875 8.796875 -2.296875 C 8.609375 -1.804688 8.34375 -1.382812 8 -1.03125 C 7.664062 -0.675781 7.253906 -0.394531 6.765625 -0.1875 C 6.273438 0.0195312 5.722656 0.125 5.109375 0.125 C 4.492188 0.125 3.941406 0.0195312 3.453125 -0.1875 C 2.960938 -0.394531 2.546875 -0.675781 2.203125 -1.03125 C 1.859375 -1.382812 1.59375 -1.804688 1.40625 -2.296875 C 1.226562 -2.796875 1.140625 -3.332031 1.140625 -3.90625 L 1.140625 -9.953125 L 2.484375 -9.953125 L 2.484375 -3.90625 C 2.484375 -3.488281 2.539062 -3.109375 2.65625 -2.765625 C 2.78125 -2.421875 2.953125 -2.125 3.171875 -1.875 C 3.398438 -1.625 3.675781 -1.425781 4 -1.28125 C 4.332031 -1.132812 4.703125 -1.0625 5.109375 -1.0625 Z M 5.109375 -1.0625 "/></g></g></g><g fill="#000000" fill-opacity="1"><g transform="translate(201.608319, 121.057312)"><g><path d="M 9.359375 -9.953125 L 5.3125 0 L 4.09375 0 L 0.046875 -9.953125 L 1.125 -9.953125 C 1.238281 -9.953125 1.332031 -9.921875 1.40625 -9.859375 C 1.476562 -9.796875 1.535156 -9.722656 1.578125 -9.640625 L 4.375 -2.609375 C 4.4375 -2.453125 4.492188 -2.28125 4.546875 -2.09375 C 4.609375 -1.90625 4.664062 -1.710938 4.71875 -1.515625 C 4.757812 -1.710938 4.804688 -1.90625 4.859375 -2.09375 C 4.910156 -2.28125 4.96875 -2.453125 5.03125 -2.609375 L 7.828125 -9.640625 C 7.859375 -9.710938 7.910156 -9.78125 7.984375 -9.84375 C 8.066406 -9.914062 8.164062 -9.953125 8.28125 -9.953125 Z M 9.359375 -9.953125 "/></g></g></g><g fill="#000000" fill-opacity="1"><g transform="translate(214.679788, 121.057312)"><g><path d="M 7.40625 -1.09375 L 7.40625 0 L 1.265625 0 L 1.265625 -9.953125 L 7.40625 -9.953125 L 7.40625 -8.859375 L 2.625 -8.859375 L 2.625 -5.546875 L 6.5 -5.546875 L 6.5 -4.5 L 2.625 -4.5 L 2.625 -1.09375 Z M 7.40625 -1.09375 "/></g></g></g></svg>